<mxfile host="65bd71144e">
    <diagram id="Ov19KBfht4VmxtYchFJS" name="PÃ¡gina-1">
        <mxGraphModel dx="1619" dy="333" grid="1" gridSize="10" guides="1" tooltips="1" connect="1" arrows="1" fold="1" page="1" pageScale="1" pageWidth="827" pageHeight="1169" math="0" shadow="0">
            <root>
                <mxCell id="0"/>
                <mxCell id="1" parent="0"/>
                <mxCell id="8" value="Turno&lt;br&gt;&lt;b&gt;Component&lt;/b&gt;" style="html=1;dropTarget=0;" parent="1" vertex="1">
                    <mxGeometry x="210" y="340" width="180" height="90" as="geometry"/>
                </mxCell>
                <mxCell id="9" value="" style="shape=module;jettyWidth=8;jettyHeight=4;" parent="8" vertex="1">
                    <mxGeometry x="1" width="20" height="20" relative="1" as="geometry">
                        <mxPoint x="-27" y="7" as="offset"/>
                    </mxGeometry>
                </mxCell>
                <mxCell id="10" value="Calendario&lt;br&gt;&lt;b&gt;Component&lt;/b&gt;" style="html=1;dropTarget=0;" parent="1" vertex="1">
                    <mxGeometry x="60" y="510" width="180" height="90" as="geometry"/>
                </mxCell>
                <mxCell id="11" value="" style="shape=module;jettyWidth=8;jettyHeight=4;" parent="10" vertex="1">
                    <mxGeometry x="1" width="20" height="20" relative="1" as="geometry">
                        <mxPoint x="-27" y="7" as="offset"/>
                    </mxGeometry>
                </mxCell>
                <mxCell id="12" value="Formulario&lt;br&gt;&lt;b&gt;Component&lt;/b&gt;" style="html=1;dropTarget=0;" parent="1" vertex="1">
                    <mxGeometry x="510" y="510" width="180" height="90" as="geometry"/>
                </mxCell>
                <mxCell id="13" value="" style="shape=module;jettyWidth=8;jettyHeight=4;" parent="12" vertex="1">
                    <mxGeometry x="1" width="20" height="20" relative="1" as="geometry">
                        <mxPoint x="-27" y="7" as="offset"/>
                    </mxGeometry>
                </mxCell>
                <mxCell id="14" value="" style="endArrow=diamondThin;endFill=1;endSize=24;html=1;entryX=0.461;entryY=-0.033;entryDx=0;entryDy=0;entryPerimeter=0;exitX=0.011;exitY=0.9;exitDx=0;exitDy=0;exitPerimeter=0;" parent="1" source="8" target="10" edge="1">
                    <mxGeometry width="160" relative="1" as="geometry">
                        <mxPoint x="90" y="420" as="sourcePoint"/>
                        <mxPoint x="250" y="420" as="targetPoint"/>
                    </mxGeometry>
                </mxCell>
                <mxCell id="15" value="" style="endArrow=diamondThin;endFill=1;endSize=24;html=1;entryX=0.5;entryY=0;entryDx=0;entryDy=0;exitX=1.01;exitY=0.433;exitDx=0;exitDy=0;exitPerimeter=0;" parent="1" source="8" target="12" edge="1">
                    <mxGeometry width="160" relative="1" as="geometry">
                        <mxPoint x="330" y="450" as="sourcePoint"/>
                        <mxPoint x="490" y="450" as="targetPoint"/>
                    </mxGeometry>
                </mxCell>
                <mxCell id="17" value="Login&lt;br&gt;&lt;b&gt;Component&lt;/b&gt;" style="html=1;dropTarget=0;" parent="1" vertex="1">
                    <mxGeometry x="850" y="310" width="180" height="90" as="geometry"/>
                </mxCell>
                <mxCell id="18" value="" style="shape=module;jettyWidth=8;jettyHeight=4;" parent="17" vertex="1">
                    <mxGeometry x="1" width="20" height="20" relative="1" as="geometry">
                        <mxPoint x="-27" y="7" as="offset"/>
                    </mxGeometry>
                </mxCell>
                <mxCell id="19" value="" style="endArrow=diamondThin;endFill=1;endSize=24;html=1;exitX=1;exitY=0.75;exitDx=0;exitDy=0;entryX=0.581;entryY=0.004;entryDx=0;entryDy=0;entryPerimeter=0;" parent="1" source="17" target="20" edge="1">
                    <mxGeometry width="160" relative="1" as="geometry">
                        <mxPoint x="950" y="420" as="sourcePoint"/>
                        <mxPoint x="1110" y="480" as="targetPoint"/>
                        <Array as="points">
                            <mxPoint x="1090" y="470"/>
                            <mxPoint x="1340" y="860"/>
                        </Array>
                    </mxGeometry>
                </mxCell>
                <mxCell id="20" value="Dashboard&lt;br&gt;&lt;b&gt;Component&lt;/b&gt;" style="html=1;dropTarget=0;" parent="1" vertex="1">
                    <mxGeometry x="1270" y="890" width="180" height="90" as="geometry"/>
                </mxCell>
                <mxCell id="21" value="" style="shape=module;jettyWidth=8;jettyHeight=4;" parent="20" vertex="1">
                    <mxGeometry x="1" width="20" height="20" relative="1" as="geometry">
                        <mxPoint x="-27" y="7" as="offset"/>
                    </mxGeometry>
                </mxCell>
                <mxCell id="23" value="Cuadrado&lt;br&gt;&lt;b&gt;Component&lt;/b&gt;" style="html=1;dropTarget=0;" parent="1" vertex="1">
                    <mxGeometry x="-570" y="500" width="180" height="90" as="geometry"/>
                </mxCell>
                <mxCell id="24" value="" style="shape=module;jettyWidth=8;jettyHeight=4;" parent="23" vertex="1">
                    <mxGeometry x="1" width="20" height="20" relative="1" as="geometry">
                        <mxPoint x="-27" y="7" as="offset"/>
                    </mxGeometry>
                </mxCell>
                <mxCell id="26" value="Calendario" style="swimlane;fontStyle=1;align=center;verticalAlign=top;childLayout=stackLayout;horizontal=1;startSize=26;horizontalStack=0;resizeParent=1;resizeParentMax=0;resizeLast=0;collapsible=1;marginBottom=0;" parent="1" vertex="1">
                    <mxGeometry x="-800" y="190" width="230" height="112" as="geometry"/>
                </mxCell>
                <mxCell id="27" value="-FechaYhora : Darte()" style="text;strokeColor=none;fillColor=none;align=left;verticalAlign=top;spacingLeft=4;spacingRight=4;overflow=hidden;rotatable=0;points=[[0,0.5],[1,0.5]];portConstraint=eastwest;" parent="26" vertex="1">
                    <mxGeometry y="26" width="230" height="26" as="geometry"/>
                </mxCell>
                <mxCell id="31" value="-disponibilidadFecha: bool" style="text;strokeColor=none;fillColor=none;align=left;verticalAlign=top;spacingLeft=4;spacingRight=4;overflow=hidden;rotatable=0;points=[[0,0.5],[1,0.5]];portConstraint=eastwest;" parent="26" vertex="1">
                    <mxGeometry y="52" width="230" height="26" as="geometry"/>
                </mxCell>
                <mxCell id="33" value="-disponibilidadHora: bool" style="text;strokeColor=none;fillColor=none;align=left;verticalAlign=top;spacingLeft=4;spacingRight=4;overflow=hidden;rotatable=0;points=[[0,0.5],[1,0.5]];portConstraint=eastwest;" parent="26" vertex="1">
                    <mxGeometry y="78" width="230" height="26" as="geometry"/>
                </mxCell>
                <mxCell id="28" value="" style="line;strokeWidth=1;fillColor=none;align=left;verticalAlign=middle;spacingTop=-1;spacingLeft=3;spacingRight=3;rotatable=0;labelPosition=right;points=[];portConstraint=eastwest;" parent="26" vertex="1">
                    <mxGeometry y="104" width="230" height="8" as="geometry"/>
                </mxCell>
                <mxCell id="37" value="" style="endArrow=open;endFill=1;endSize=12;html=1;entryX=0;entryY=0;entryDx=0;entryDy=0;exitX=0.998;exitY=0.086;exitDx=0;exitDy=0;exitPerimeter=0;" parent="1" source="26" target="10" edge="1">
                    <mxGeometry width="160" relative="1" as="geometry">
                        <mxPoint x="10" y="290" as="sourcePoint"/>
                        <mxPoint x="170" y="290" as="targetPoint"/>
                    </mxGeometry>
                </mxCell>
                <mxCell id="40" value="" style="rounded=0;orthogonalLoop=1;jettySize=auto;html=1;endArrow=none;endFill=0;sketch=0;sourcePerimeterSpacing=0;targetPerimeterSpacing=0;exitX=1.017;exitY=0.424;exitDx=0;exitDy=0;exitPerimeter=0;" parent="1" source="23" target="42" edge="1">
                    <mxGeometry relative="1" as="geometry">
                        <mxPoint x="-270" y="525" as="sourcePoint"/>
                    </mxGeometry>
                </mxCell>
                <mxCell id="41" value="" style="rounded=0;orthogonalLoop=1;jettySize=auto;html=1;endArrow=halfCircle;endFill=0;entryX=0.5;entryY=0.5;endSize=6;strokeWidth=1;sketch=0;exitX=0;exitY=0.25;exitDx=0;exitDy=0;" parent="1" source="10" target="42" edge="1">
                    <mxGeometry relative="1" as="geometry">
                        <mxPoint x="-230" y="525" as="sourcePoint"/>
                    </mxGeometry>
                </mxCell>
                <mxCell id="42" value="" style="ellipse;whiteSpace=wrap;html=1;align=center;aspect=fixed;resizable=0;points=[];outlineConnect=0;sketch=0;" parent="1" vertex="1">
                    <mxGeometry x="-220" y="530" width="10" height="10" as="geometry"/>
                </mxCell>
                <mxCell id="44" value="" style="endArrow=diamondThin;endFill=1;endSize=24;html=1;entryX=1.014;entryY=0.92;entryDx=0;entryDy=0;entryPerimeter=0;exitX=-0.019;exitY=0.783;exitDx=0;exitDy=0;exitPerimeter=0;" parent="1" source="10" target="23" edge="1">
                    <mxGeometry width="160" relative="1" as="geometry">
                        <mxPoint x="-290" y="560" as="sourcePoint"/>
                        <mxPoint x="-130" y="560" as="targetPoint"/>
                    </mxGeometry>
                </mxCell>
                <mxCell id="45" value="Pasar Fecha y Hora Disponible&amp;nbsp;" style="text;html=1;align=center;verticalAlign=middle;resizable=0;points=[];autosize=1;strokeColor=none;fillColor=none;" parent="1" vertex="1">
                    <mxGeometry x="-300" y="500" width="180" height="20" as="geometry"/>
                </mxCell>
                <mxCell id="46" value="Formulario" style="swimlane;fontStyle=0;childLayout=stackLayout;horizontal=1;startSize=26;fillColor=none;horizontalStack=0;resizeParent=1;resizeParentMax=0;resizeLast=0;collapsible=1;marginBottom=0;" parent="1" vertex="1">
                    <mxGeometry x="860" y="620" width="140" height="156" as="geometry"/>
                </mxCell>
                <mxCell id="47" value="-nombre: string" style="text;strokeColor=none;fillColor=none;align=left;verticalAlign=top;spacingLeft=4;spacingRight=4;overflow=hidden;rotatable=0;points=[[0,0.5],[1,0.5]];portConstraint=eastwest;" parent="46" vertex="1">
                    <mxGeometry y="26" width="140" height="26" as="geometry"/>
                </mxCell>
                <mxCell id="48" value="-apellido : string" style="text;strokeColor=none;fillColor=none;align=left;verticalAlign=top;spacingLeft=4;spacingRight=4;overflow=hidden;rotatable=0;points=[[0,0.5],[1,0.5]];portConstraint=eastwest;" parent="46" vertex="1">
                    <mxGeometry y="52" width="140" height="26" as="geometry"/>
                </mxCell>
                <mxCell id="49" value="-tel: int" style="text;strokeColor=none;fillColor=none;align=left;verticalAlign=top;spacingLeft=4;spacingRight=4;overflow=hidden;rotatable=0;points=[[0,0.5],[1,0.5]];portConstraint=eastwest;" parent="46" vertex="1">
                    <mxGeometry y="78" width="140" height="26" as="geometry"/>
                </mxCell>
                <mxCell id="50" value="-barbero: Barbero" style="text;strokeColor=none;fillColor=none;align=left;verticalAlign=top;spacingLeft=4;spacingRight=4;overflow=hidden;rotatable=0;points=[[0,0.5],[1,0.5]];portConstraint=eastwest;" parent="46" vertex="1">
                    <mxGeometry y="104" width="140" height="26" as="geometry"/>
                </mxCell>
                <mxCell id="51" value="-servicio : intt" style="text;strokeColor=none;fillColor=none;align=left;verticalAlign=top;spacingLeft=4;spacingRight=4;overflow=hidden;rotatable=0;points=[[0,0.5],[1,0.5]];portConstraint=eastwest;" parent="46" vertex="1">
                    <mxGeometry y="130" width="140" height="26" as="geometry"/>
                </mxCell>
                <mxCell id="52" value="" style="endArrow=open;endFill=1;endSize=12;html=1;entryX=0.847;entryY=1.033;entryDx=0;entryDy=0;entryPerimeter=0;exitX=-0.012;exitY=0.094;exitDx=0;exitDy=0;exitPerimeter=0;" parent="1" source="46" target="12" edge="1">
                    <mxGeometry width="160" relative="1" as="geometry">
                        <mxPoint x="610" y="680" as="sourcePoint"/>
                        <mxPoint x="770" y="680" as="targetPoint"/>
                    </mxGeometry>
                </mxCell>
                <mxCell id="56" value="" style="rounded=0;orthogonalLoop=1;jettySize=auto;html=1;endArrow=none;endFill=0;sketch=0;sourcePerimeterSpacing=0;targetPerimeterSpacing=0;" parent="1" source="8" target="58" edge="1">
                    <mxGeometry relative="1" as="geometry">
                        <mxPoint x="394" y="485" as="sourcePoint"/>
                    </mxGeometry>
                </mxCell>
                <mxCell id="57" value="" style="rounded=0;orthogonalLoop=1;jettySize=auto;html=1;endArrow=halfCircle;endFill=0;entryX=0.5;entryY=0.5;endSize=6;strokeWidth=1;sketch=0;exitX=0;exitY=0.25;exitDx=0;exitDy=0;" parent="1" source="12" target="58" edge="1">
                    <mxGeometry relative="1" as="geometry">
                        <mxPoint x="434" y="485" as="sourcePoint"/>
                    </mxGeometry>
                </mxCell>
                <mxCell id="58" value="" style="ellipse;whiteSpace=wrap;html=1;align=center;aspect=fixed;resizable=0;points=[];outlineConnect=0;sketch=0;" parent="1" vertex="1">
                    <mxGeometry x="409" y="480" width="10" height="10" as="geometry"/>
                </mxCell>
                <mxCell id="59" value="Datos Del Formulario" style="text;html=1;align=center;verticalAlign=middle;resizable=0;points=[];autosize=1;strokeColor=none;fillColor=none;rotation=30;" parent="1" vertex="1">
                    <mxGeometry x="390" y="460" width="130" height="20" as="geometry"/>
                </mxCell>
                <mxCell id="60" value="" style="rounded=0;orthogonalLoop=1;jettySize=auto;html=1;endArrow=none;endFill=0;sketch=0;sourcePerimeterSpacing=0;targetPerimeterSpacing=0;exitX=0.889;exitY=0;exitDx=0;exitDy=0;exitPerimeter=0;" parent="1" source="10" target="62" edge="1">
                    <mxGeometry relative="1" as="geometry">
                        <mxPoint x="220" y="455" as="sourcePoint"/>
                    </mxGeometry>
                </mxCell>
                <mxCell id="61" value="" style="rounded=0;orthogonalLoop=1;jettySize=auto;html=1;endArrow=halfCircle;endFill=0;entryX=0.5;entryY=0.5;endSize=6;strokeWidth=1;sketch=0;exitX=0.25;exitY=1;exitDx=0;exitDy=0;" parent="1" source="8" target="62" edge="1">
                    <mxGeometry relative="1" as="geometry">
                        <mxPoint x="260" y="455" as="sourcePoint"/>
                    </mxGeometry>
                </mxCell>
                <mxCell id="62" value="" style="ellipse;whiteSpace=wrap;html=1;align=center;aspect=fixed;resizable=0;points=[];outlineConnect=0;sketch=0;" parent="1" vertex="1">
                    <mxGeometry x="235" y="450" width="10" height="10" as="geometry"/>
                </mxCell>
                <mxCell id="63" value="Fecha Y Hora" style="text;html=1;align=center;verticalAlign=middle;resizable=0;points=[];autosize=1;strokeColor=none;fillColor=none;rotation=-60;" parent="1" vertex="1">
                    <mxGeometry x="170" y="460" width="90" height="20" as="geometry"/>
                </mxCell>
                <mxCell id="64" value="" style="rounded=0;orthogonalLoop=1;jettySize=auto;html=1;endArrow=none;endFill=0;sketch=0;sourcePerimeterSpacing=0;targetPerimeterSpacing=0;exitX=0;exitY=0.5;exitDx=0;exitDy=0;" parent="1" source="20" target="66" edge="1">
                    <mxGeometry relative="1" as="geometry">
                        <mxPoint x="1250" y="940" as="sourcePoint"/>
                    </mxGeometry>
                </mxCell>
                <mxCell id="65" value="" style="rounded=0;orthogonalLoop=1;jettySize=auto;html=1;endArrow=halfCircle;endFill=0;entryX=0.5;entryY=0.5;endSize=6;strokeWidth=1;sketch=0;exitX=0.5;exitY=1;exitDx=0;exitDy=0;" parent="1" source="8" target="66" edge="1">
                    <mxGeometry relative="1" as="geometry">
                        <mxPoint x="320" y="615" as="sourcePoint"/>
                    </mxGeometry>
                </mxCell>
                <mxCell id="66" value="" style="ellipse;whiteSpace=wrap;html=1;align=center;aspect=fixed;resizable=0;points=[];outlineConnect=0;sketch=0;" parent="1" vertex="1">
                    <mxGeometry x="295" y="610" width="10" height="10" as="geometry"/>
                </mxCell>
                <mxCell id="68" value="Datos Del Formulario y Calendario" style="text;html=1;align=center;verticalAlign=middle;resizable=0;points=[];autosize=1;strokeColor=none;fillColor=none;rotation=15;" parent="1" vertex="1">
                    <mxGeometry x="650" y="810" width="200" height="20" as="geometry"/>
                </mxCell>
                <mxCell id="70" value="Login" style="swimlane;fontStyle=0;childLayout=stackLayout;horizontal=1;startSize=26;fillColor=none;horizontalStack=0;resizeParent=1;resizeParentMax=0;resizeLast=0;collapsible=1;marginBottom=0;" parent="1" vertex="1">
                    <mxGeometry x="1180" y="160" width="140" height="104" as="geometry"/>
                </mxCell>
                <mxCell id="71" value="-email : sting" style="text;strokeColor=none;fillColor=none;align=left;verticalAlign=top;spacingLeft=4;spacingRight=4;overflow=hidden;rotatable=0;points=[[0,0.5],[1,0.5]];portConstraint=eastwest;" parent="70" vertex="1">
                    <mxGeometry y="26" width="140" height="26" as="geometry"/>
                </mxCell>
                <mxCell id="72" value="-password" style="text;strokeColor=none;fillColor=none;align=left;verticalAlign=top;spacingLeft=4;spacingRight=4;overflow=hidden;rotatable=0;points=[[0,0.5],[1,0.5]];portConstraint=eastwest;" parent="70" vertex="1">
                    <mxGeometry y="52" width="140" height="26" as="geometry"/>
                </mxCell>
                <mxCell id="73" value="-entrar: bool" style="text;strokeColor=none;fillColor=none;align=left;verticalAlign=top;spacingLeft=4;spacingRight=4;overflow=hidden;rotatable=0;points=[[0,0.5],[1,0.5]];portConstraint=eastwest;" parent="70" vertex="1">
                    <mxGeometry y="78" width="140" height="26" as="geometry"/>
                </mxCell>
                <mxCell id="74" value="" style="endArrow=open;endFill=1;endSize=12;html=1;entryX=0.914;entryY=0.011;entryDx=0;entryDy=0;entryPerimeter=0;" parent="1" target="17" edge="1">
                    <mxGeometry width="160" relative="1" as="geometry">
                        <mxPoint x="1170" y="200" as="sourcePoint"/>
                        <mxPoint x="1130" y="200" as="targetPoint"/>
                    </mxGeometry>
                </mxCell>
                <mxCell id="75" value="Administrador" style="shape=umlActor;verticalLabelPosition=bottom;verticalAlign=top;html=1;" parent="1" vertex="1">
                    <mxGeometry x="880" y="120" width="30" height="60" as="geometry"/>
                </mxCell>
                <mxCell id="76" value="" style="endArrow=block;dashed=1;endFill=0;endSize=12;html=1;entryX=0.383;entryY=-0.022;entryDx=0;entryDy=0;entryPerimeter=0;" parent="1" target="17" edge="1">
                    <mxGeometry width="160" relative="1" as="geometry">
                        <mxPoint x="900" y="200" as="sourcePoint"/>
                        <mxPoint x="1020" y="230" as="targetPoint"/>
                    </mxGeometry>
                </mxCell>
                <mxCell id="77" value="Como Administrador quiero entrar al&amp;nbsp;&lt;span&gt;Dashboard&lt;/span&gt;" style="ellipse;whiteSpace=wrap;html=1;" parent="1" vertex="1">
                    <mxGeometry x="870" y="30" width="140" height="70" as="geometry"/>
                </mxCell>
                <mxCell id="82" value="&lt;span style=&quot;font-size: 12px&quot;&gt;administrador acces&lt;/span&gt;" style="html=1;verticalAlign=bottom;endArrow=block;entryX=0.056;entryY=0;entryDx=0;entryDy=0;entryPerimeter=0;" parent="1" target="20" edge="1">
                    <mxGeometry x="-0.042" y="-10" width="80" relative="1" as="geometry">
                        <mxPoint x="990" y="400" as="sourcePoint"/>
                        <mxPoint x="1060" y="530" as="targetPoint"/>
                        <mxPoint as="offset"/>
                    </mxGeometry>
                </mxCell>
                <mxCell id="88" value="Cliente&lt;br&gt;&lt;br&gt;" style="shape=umlActor;verticalLabelPosition=bottom;verticalAlign=top;html=1;" parent="1" vertex="1">
                    <mxGeometry x="120" y="120" width="30" height="60" as="geometry"/>
                </mxCell>
                <mxCell id="89" value="Como cliente quiero sacar un turno&amp;nbsp;" style="ellipse;whiteSpace=wrap;html=1;" parent="1" vertex="1">
                    <mxGeometry x="150" y="50" width="140" height="70" as="geometry"/>
                </mxCell>
                <mxCell id="90" value="Use" style="endArrow=open;endSize=12;dashed=1;html=1;" parent="1" source="88" target="8" edge="1">
                    <mxGeometry width="160" relative="1" as="geometry">
                        <mxPoint x="150" y="220" as="sourcePoint"/>
                        <mxPoint x="310" y="220" as="targetPoint"/>
                    </mxGeometry>
                </mxCell>
                <mxCell id="91" value="" style="rounded=0;orthogonalLoop=1;jettySize=auto;html=1;endArrow=none;endFill=0;sketch=0;sourcePerimeterSpacing=0;targetPerimeterSpacing=0;" parent="1" target="93" edge="1">
                    <mxGeometry relative="1" as="geometry">
                        <mxPoint x="160" y="610" as="sourcePoint"/>
                    </mxGeometry>
                </mxCell>
                <mxCell id="92" value="" style="rounded=0;orthogonalLoop=1;jettySize=auto;html=1;endArrow=halfCircle;endFill=0;entryX=0.5;entryY=0.5;endSize=6;strokeWidth=1;sketch=0;exitX=0;exitY=1;exitDx=0;exitDy=0;" parent="1" source="20" target="93" edge="1">
                    <mxGeometry relative="1" as="geometry">
                        <mxPoint x="275" y="855" as="sourcePoint"/>
                    </mxGeometry>
                </mxCell>
                <mxCell id="93" value="" style="ellipse;whiteSpace=wrap;html=1;align=center;aspect=fixed;resizable=0;points=[];outlineConnect=0;sketch=0;" parent="1" vertex="1">
                    <mxGeometry x="250" y="850" width="10" height="10" as="geometry"/>
                </mxCell>
                <mxCell id="94" value="Actualizar Fecha y Hora Disponible" style="text;html=1;align=center;verticalAlign=middle;resizable=0;points=[];autosize=1;strokeColor=none;fillColor=none;rotation=10;" parent="1" vertex="1">
                    <mxGeometry x="680" y="940" width="200" height="20" as="geometry"/>
                </mxCell>
                <mxCell id="95" value="Barberos&lt;br&gt;&lt;b&gt;Component&lt;/b&gt;" style="html=1;dropTarget=0;" parent="1" vertex="1">
                    <mxGeometry x="1660" y="640" width="180" height="90" as="geometry"/>
                </mxCell>
                <mxCell id="96" value="" style="shape=module;jettyWidth=8;jettyHeight=4;" parent="95" vertex="1">
                    <mxGeometry x="1" width="20" height="20" relative="1" as="geometry">
                        <mxPoint x="-27" y="7" as="offset"/>
                    </mxGeometry>
                </mxCell>
                <mxCell id="97" value="Servicios&lt;br&gt;&lt;b&gt;Component&lt;/b&gt;" style="html=1;dropTarget=0;" parent="1" vertex="1">
                    <mxGeometry x="1830" y="880" width="180" height="90" as="geometry"/>
                </mxCell>
                <mxCell id="98" value="" style="shape=module;jettyWidth=8;jettyHeight=4;" parent="97" vertex="1">
                    <mxGeometry x="1" width="20" height="20" relative="1" as="geometry">
                        <mxPoint x="-27" y="7" as="offset"/>
                    </mxGeometry>
                </mxCell>
                <mxCell id="99" value="" style="rounded=0;orthogonalLoop=1;jettySize=auto;html=1;endArrow=none;endFill=0;sketch=0;sourcePerimeterSpacing=0;targetPerimeterSpacing=0;exitX=1;exitY=0.25;exitDx=0;exitDy=0;" parent="1" source="20" target="101" edge="1">
                    <mxGeometry relative="1" as="geometry">
                        <mxPoint x="1520" y="885" as="sourcePoint"/>
                    </mxGeometry>
                </mxCell>
                <mxCell id="100" value="" style="rounded=0;orthogonalLoop=1;jettySize=auto;html=1;endArrow=halfCircle;endFill=0;entryX=0.5;entryY=0.5;endSize=6;strokeWidth=1;sketch=0;" parent="1" source="95" target="101" edge="1">
                    <mxGeometry relative="1" as="geometry">
                        <mxPoint x="1560" y="885" as="sourcePoint"/>
                    </mxGeometry>
                </mxCell>
                <mxCell id="101" value="" style="ellipse;whiteSpace=wrap;html=1;align=center;aspect=fixed;resizable=0;points=[];outlineConnect=0;sketch=0;" parent="1" vertex="1">
                    <mxGeometry x="1535" y="880" width="10" height="10" as="geometry"/>
                </mxCell>
                <mxCell id="102" value="" style="rounded=0;orthogonalLoop=1;jettySize=auto;html=1;endArrow=none;endFill=0;sketch=0;sourcePerimeterSpacing=0;targetPerimeterSpacing=0;exitX=1;exitY=1;exitDx=0;exitDy=0;" parent="1" source="20" target="104" edge="1">
                    <mxGeometry relative="1" as="geometry">
                        <mxPoint x="1490" y="975" as="sourcePoint"/>
                    </mxGeometry>
                </mxCell>
                <mxCell id="103" value="" style="rounded=0;orthogonalLoop=1;jettySize=auto;html=1;endArrow=halfCircle;endFill=0;entryX=0.5;entryY=0.5;endSize=6;strokeWidth=1;sketch=0;exitX=0;exitY=0.75;exitDx=0;exitDy=0;" parent="1" source="97" target="104" edge="1">
                    <mxGeometry relative="1" as="geometry">
                        <mxPoint x="1540" y="975" as="sourcePoint"/>
                    </mxGeometry>
                </mxCell>
                <mxCell id="104" value="" style="ellipse;whiteSpace=wrap;html=1;align=center;aspect=fixed;resizable=0;points=[];outlineConnect=0;sketch=0;" parent="1" vertex="1">
                    <mxGeometry x="1505" y="970" width="10" height="10" as="geometry"/>
                </mxCell>
                <mxCell id="105" value="CRUD" style="text;html=1;align=center;verticalAlign=middle;resizable=0;points=[];autosize=1;strokeColor=none;fillColor=none;" parent="1" vertex="1">
                    <mxGeometry x="1505" y="820" width="50" height="20" as="geometry"/>
                </mxCell>
                <mxCell id="106" value="CRUD" style="text;html=1;align=center;verticalAlign=middle;resizable=0;points=[];autosize=1;strokeColor=none;fillColor=none;" parent="1" vertex="1">
                    <mxGeometry x="1525" y="980" width="50" height="20" as="geometry"/>
                </mxCell>
                <mxCell id="107" value="Babero" style="swimlane;fontStyle=0;childLayout=stackLayout;horizontal=1;startSize=26;fillColor=none;horizontalStack=0;resizeParent=1;resizeParentMax=0;resizeLast=0;collapsible=1;marginBottom=0;" parent="1" vertex="1">
                    <mxGeometry x="2040" y="430" width="140" height="104" as="geometry"/>
                </mxCell>
                <mxCell id="108" value="-img : (jpg,webp , png)" style="text;strokeColor=none;fillColor=none;align=left;verticalAlign=top;spacingLeft=4;spacingRight=4;overflow=hidden;rotatable=0;points=[[0,0.5],[1,0.5]];portConstraint=eastwest;" parent="107" vertex="1">
                    <mxGeometry y="26" width="140" height="26" as="geometry"/>
                </mxCell>
                <mxCell id="109" value="-nombre : string" style="text;strokeColor=none;fillColor=none;align=left;verticalAlign=top;spacingLeft=4;spacingRight=4;overflow=hidden;rotatable=0;points=[[0,0.5],[1,0.5]];portConstraint=eastwest;" parent="107" vertex="1">
                    <mxGeometry y="52" width="140" height="26" as="geometry"/>
                </mxCell>
                <mxCell id="110" value="-apellifo : stingÂ " style="text;strokeColor=none;fillColor=none;align=left;verticalAlign=top;spacingLeft=4;spacingRight=4;overflow=hidden;rotatable=0;points=[[0,0.5],[1,0.5]];portConstraint=eastwest;" parent="107" vertex="1">
                    <mxGeometry y="78" width="140" height="26" as="geometry"/>
                </mxCell>
                <mxCell id="114" value="" style="endArrow=open;endFill=1;endSize=12;html=1;entryX=0.588;entryY=-0.022;entryDx=0;entryDy=0;entryPerimeter=0;exitX=-0.03;exitY=0.199;exitDx=0;exitDy=0;exitPerimeter=0;" parent="1" source="109" target="95" edge="1">
                    <mxGeometry width="160" relative="1" as="geometry">
                        <mxPoint x="1810" y="520" as="sourcePoint"/>
                        <mxPoint x="1970" y="520" as="targetPoint"/>
                    </mxGeometry>
                </mxCell>
                <mxCell id="115" value="Servicios" style="swimlane;fontStyle=0;childLayout=stackLayout;horizontal=1;startSize=26;fillColor=none;horizontalStack=0;resizeParent=1;resizeParentMax=0;resizeLast=0;collapsible=1;marginBottom=0;" parent="1" vertex="1">
                    <mxGeometry x="2290" y="880" width="140" height="78" as="geometry"/>
                </mxCell>
                <mxCell id="116" value="-idDeServicio :int" style="text;strokeColor=none;fillColor=none;align=left;verticalAlign=top;spacingLeft=4;spacingRight=4;overflow=hidden;rotatable=0;points=[[0,0.5],[1,0.5]];portConstraint=eastwest;" parent="115" vertex="1">
                    <mxGeometry y="26" width="140" height="26" as="geometry"/>
                </mxCell>
                <mxCell id="117" value="-monto : float" style="text;strokeColor=none;fillColor=none;align=left;verticalAlign=top;spacingLeft=4;spacingRight=4;overflow=hidden;rotatable=0;points=[[0,0.5],[1,0.5]];portConstraint=eastwest;" parent="115" vertex="1">
                    <mxGeometry y="52" width="140" height="26" as="geometry"/>
                </mxCell>
                <mxCell id="119" value="" style="endArrow=open;endFill=1;endSize=12;html=1;entryX=1;entryY=0.5;entryDx=0;entryDy=0;exitX=0;exitY=0.25;exitDx=0;exitDy=0;" parent="1" source="115" target="97" edge="1">
                    <mxGeometry width="160" relative="1" as="geometry">
                        <mxPoint x="2090" y="910" as="sourcePoint"/>
                        <mxPoint x="2250" y="910" as="targetPoint"/>
                    </mxGeometry>
                </mxCell>
                <mxCell id="120" value="Turno" style="swimlane;fontStyle=0;childLayout=stackLayout;horizontal=1;startSize=26;fillColor=none;horizontalStack=0;resizeParent=1;resizeParentMax=0;resizeLast=0;collapsible=1;marginBottom=0;" vertex="1" parent="1">
                    <mxGeometry x="-140" y="216" width="180" height="78" as="geometry"/>
                </mxCell>
                <mxCell id="122" value="-fechaYHora: Calendario" style="text;strokeColor=none;fillColor=none;align=left;verticalAlign=top;spacingLeft=4;spacingRight=4;overflow=hidden;rotatable=0;points=[[0,0.5],[1,0.5]];portConstraint=eastwest;" vertex="1" parent="120">
                    <mxGeometry y="26" width="180" height="26" as="geometry"/>
                </mxCell>
                <mxCell id="123" value="-datosFormulario: Formulario" style="text;strokeColor=none;fillColor=none;align=left;verticalAlign=top;spacingLeft=4;spacingRight=4;overflow=hidden;rotatable=0;points=[[0,0.5],[1,0.5]];portConstraint=eastwest;" vertex="1" parent="120">
                    <mxGeometry y="52" width="180" height="26" as="geometry"/>
                </mxCell>
                <mxCell id="124" value="" style="endArrow=open;endFill=1;endSize=12;html=1;entryX=0;entryY=0.5;entryDx=0;entryDy=0;exitX=0.59;exitY=1.177;exitDx=0;exitDy=0;exitPerimeter=0;" edge="1" parent="1" source="123" target="8">
                    <mxGeometry width="160" relative="1" as="geometry">
                        <mxPoint x="-10" y="330" as="sourcePoint"/>
                        <mxPoint x="150" y="330" as="targetPoint"/>
                    </mxGeometry>
                </mxCell>
                <mxCell id="125" value="&lt;font style=&quot;font-size: 24px&quot;&gt;locahos:300/turno&lt;/font&gt;" style="text;html=1;align=center;verticalAlign=middle;resizable=0;points=[];autosize=1;strokeColor=none;fillColor=none;" vertex="1" parent="1">
                    <mxGeometry x="290" y="282" width="210" height="20" as="geometry"/>
                </mxCell>
                <mxCell id="126" value="localhost:300/login" style="text;html=1;align=center;verticalAlign=middle;resizable=0;points=[];autosize=1;strokeColor=none;fillColor=none;fontSize=24;" vertex="1" parent="1">
                    <mxGeometry x="1040" y="340" width="210" height="30" as="geometry"/>
                </mxCell>
                <mxCell id="127" value="localhost:3000/dashboard" style="text;html=1;align=center;verticalAlign=middle;resizable=0;points=[];autosize=1;strokeColor=none;fillColor=none;fontSize=24;" vertex="1" parent="1">
                    <mxGeometry x="1310" y="746" width="290" height="30" as="geometry"/>
                </mxCell>
            </root>
        </mxGraphModel>
    </diagram>
</mxfile>